<svg xmlns="http://www.w3.org/2000/svg" width="60" height="60" fill="none" viewBox="0 0 60 60">
    <rect width="60" height="60" fill="url(#prefix__paint0_linear)" rx="12"/>
    <path fill="#4643EE" fill-rule="evenodd" d="M40.73 37.937c-.35.579-.35 1.304 0 1.883l.778 1.318c.052.088.08.19.08.291 0 .315-.256.571-.571.571H33.62c-4.105.005-7.664-2.842-8.56-6.849h-6.073c-.103 0-.203-.028-.291-.08-.271-.16-.36-.51-.2-.781l.794-1.324c.35-.58.35-1.305 0-1.884-.723-1.163-1.157-2.483-1.263-3.85-.37-4.713 3.152-8.833 7.865-9.202 2.423-.204 4.818.642 6.575 2.323 1.33 1.25 2.226 2.891 2.557 4.685 1.027.194 2.01.574 2.9 1.122 4.028 2.477 5.284 7.75 2.807 11.777zm-14.507-2.785c.876 3.376 3.932 5.727 7.42 5.707h6.392l-.274-.463c-.57-.942-.57-2.122 0-3.064.417-.678.722-1.419.904-2.194.937-3.989-1.538-7.982-5.527-8.918v.496c-.149 4.73-4.047 8.475-8.778 8.435h-.137z" clip-rule="evenodd"/>
    <path fill="#4643EE" d="M40.73 39.82l.432-.254-.003-.005-.428.259zm0-1.883l-.425-.262-.002.003.428.259zm.778 3.201l-.431.254.001.003.43-.257zM33.62 42v-.5.5zm-8.56-6.849l.487-.109-.087-.39h-.4v.5zm-6.364-.08l-.255.43v.001l.255-.43zm-.2-.781l-.429-.257v.001l.43.256zm.794-1.324l-.428-.259-.001.002.429.257zm0-1.884l.428-.258-.004-.006-.424.264zm-1.263-3.85l.498-.038-.498.039zm7.865-9.202l.04.498h.002l-.042-.498zm6.575 2.323l-.346.361.003.003.343-.364zm2.557 4.685l-.492.091.062.337.337.064.093-.492zm2.9 1.122l-.261.426.262-.426zm-4.282 14.699l.003.5.497-.003v-.497h-.5zm-7.419-5.708v-.5h-.646l.162.626.484-.126zm7.42 5.708v-.5h-.5v.5h.5zm6.392 0v.5h.877l-.447-.755-.43.255zm-.274-.463l.43-.255-.003-.003-.428.258zm0-3.064l-.426-.262-.002.003.428.259zm.904-2.194l.487.115-.487-.115zm-5.527-8.918l.114-.487-.614-.144v.63h.5zm0 .496l.5.016v-.016h-.5zm-8.778 8.435l.004-.5h-.004v.5zm14.799 4.41c-.254-.42-.254-.946 0-1.366l-.856-.517c-.446.738-.446 1.662 0 2.4l.856-.517zm.78 1.323l-.778-1.318-.861.508.777 1.318.861-.508zm.148.545c0-.19-.05-.38-.15-.547l-.859.513c.006.009.01.02.01.034h1zm-1.07 1.071c.59 0 1.07-.48 1.07-1.07h-1c0 .038-.031.07-.07.07v1zm-7.397 0h7.397v-1H33.62v1zm-9.048-7.24c.947 4.236 4.709 7.245 9.049 7.24l-.001-1c-3.872.005-7.228-2.68-8.073-6.458l-.976.218zm-5.585.391h6.073v-1h-6.073v1zm-.545-.149c.163.097.352.15.545.15v-1c-.012 0-.025-.004-.037-.01l-.508.86zm-.376-1.468c-.302.509-.134 1.167.375 1.468l.51-.86c-.033-.02-.045-.064-.025-.097l-.86-.51zm.795-1.325l-.794 1.324.858.514.793-1.324-.857-.514zm0-1.368c.254.42.254.946 0 1.366l.857.517c.445-.738.445-1.662 0-2.4l-.856.517zm-1.333-4.07c.113 1.446.572 2.843 1.337 4.075l.85-.528c-.682-1.095-1.09-2.338-1.19-3.624l-.997.078zm8.325-9.74c-4.989.391-8.716 4.752-8.325 9.74l.997-.077c-.348-4.438 2.968-8.318 7.406-8.665l-.078-.997zm6.96 2.46c-1.861-1.78-4.397-2.676-6.963-2.46l.084.997c2.28-.192 4.534.604 6.187 2.186l.691-.723zm2.702 4.957c-.35-1.9-1.298-3.637-2.706-4.96l-.684.73c1.252 1.175 2.095 2.722 2.407 4.411l.983-.181zm2.672.786c-.943-.58-1.984-.982-3.07-1.187l-.186.983c.967.182 1.893.54 2.732 1.056l.524-.852zm2.97 12.465c2.621-4.263 1.292-9.843-2.97-12.465l-.524.852c3.791 2.332 4.974 7.297 2.642 11.089l.852.524zm-7.517 2.16c-3.26.018-6.115-2.178-6.933-5.333l-.968.251c.933 3.598 4.19 6.103 7.906 6.082l-.005-1zm-.498.5h1-1zm6.892-.5h-6.392v1h6.392v-1zm-.704.292l.274.462.86-.51-.273-.462-.86.51zm.003-3.578c-.666 1.101-.666 2.48 0 3.582l.855-.517c-.473-.783-.473-1.764 0-2.548l-.855-.517zm.845-2.049c-.17.723-.454 1.413-.843 2.046l.851.524c.446-.724.772-1.514.966-2.341l-.974-.229zm-5.154-8.317c3.72.873 6.028 4.597 5.154 8.317l.974.229c1-4.259-1.642-8.52-5.9-9.52l-.229.974zm.614.01v-.497h-1v.496h1zm-9.282 8.934c5.003.042 9.125-3.918 9.282-8.919l-1-.031c-.14 4.458-3.814 7.988-8.274 7.95l-.008 1zm-.133 0h.137v-1h-.137v1z"/>
    <defs>
        <linearGradient id="prefix__paint0_linear" x1="26.395" x2="-25.63" y1="-17.273" y2="33.987" gradientUnits="userSpaceOnUse">
            <stop stop-color="#fff"/>
            <stop offset="1" stop-color="#F6F6F9"/>
        </linearGradient>
    </defs>
</svg>
