<svg xmlns="http://www.w3.org/2000/svg" width="60" height="60" fill="none" viewBox="0 0 60 60">
    <rect width="60" height="60" fill="url(#prefix__paint0_linear)" rx="12"/>
    <path fill="#4643EE" d="M27.976 32.015c1.471 1.524 3.251 2.7 5.215 3.447l2.657-2.159c.079-.055.172-.085.268-.085.096 0 .189.03.268.085l4.933 3.246c.187.115.346.273.463.461.117.188.19.402.212.624.023.222-.005.446-.082.655-.077.209-.2.397-.36.548l-2.312 2.332c-.331.334-.738.58-1.184.714-.447.134-.919.153-1.374.056-4.544-.958-8.733-3.203-12.087-6.477-3.28-3.306-5.549-7.514-6.532-12.111-.098-.458-.078-.934.058-1.382.136-.447.383-.852.717-1.173l2.396-2.36c.148-.156.329-.275.529-.35.2-.074.413-.1.625-.078.211.022.415.092.596.206.181.114.334.269.449.452l3.284 4.973c.056.078.087.172.087.27 0 .097-.03.191-.087.27l-2.164 2.655c.751 1.965 1.921 3.735 3.425 5.181z"/>
    <defs>
        <linearGradient id="prefix__paint0_linear" x1="26.395" x2="-25.63" y1="-17.273" y2="33.987" gradientUnits="userSpaceOnUse">
            <stop stop-color="#fff"/>
            <stop offset="1" stop-color="#F6F6F9"/>
        </linearGradient>
    </defs>
</svg>
